<?xml version="1.0" encoding="UTF-8"?><svg id="Layer_1" xmlns="http://www.w3.org/2000/svg" viewBox="0 0 512 512"><path d="m14.5,0h483.75c7.59,0,13.75,6.16,13.75,13.75v484.51c0,7.59-6.16,13.75-13.75,13.75H13.75c-7.59,0-13.75-6.16-13.75-13.75V14.5C0,6.5,6.5,0,14.5,0Z" style="fill:#fff; stroke-width:0px;"/><path d="m150.86,182.57h15.74c8.82,0,15.98-7.15,15.98-15.98v-63.19c0-8.82-7.15-15.98-15.98-15.98h-63.19c-8.82,0-15.98,7.15-15.98,15.98v63.19c0,8.82,7.15,15.98,15.98,15.98h47.45Z" style="stroke-width:0px;"/><path d="m92.26,234.73h128.11c7.93,0,14.36-6.43,14.36-14.36V49.63c0-7.93-6.43-14.36-14.36-14.36H49.65c-7.94,0-14.38,6.44-14.38,14.38v170.72c0,7.93,6.43,14.36,14.36,14.36h42.63Zm-28.49-56.99v-99.62c0-7.93,6.43-14.36,14.36-14.36h113.76c7.93,0,14.36,6.43,14.36,14.36v113.76c0,7.93-6.43,14.36-14.36,14.36h-113.76c-7.93,0-14.36-6.43-14.36-14.36v-14.14Z" style="stroke-width:0px;"/><path d="m392.86,182.57h15.74c8.82,0,15.98-7.15,15.98-15.98v-63.19c0-8.82-7.15-15.98-15.98-15.98h-63.19c-8.82,0-15.98,7.15-15.98,15.98v63.19c0,8.82,7.15,15.98,15.98,15.98h47.45Z" style="stroke-width:0px;"/><path d="m334.26,234.73h128.11c7.93,0,14.36-6.43,14.36-14.36V49.63c0-7.93-6.43-14.36-14.36-14.36h-170.72c-7.94,0-14.38,6.44-14.38,14.38v170.72c0,7.93,6.43,14.36,14.36,14.36h42.63Zm-28.49-56.99v-99.62c0-7.93,6.43-14.36,14.36-14.36h113.76c7.93,0,14.36,6.43,14.36,14.36v113.76c0,7.93-6.43,14.36-14.36,14.36h-113.76c-7.93,0-14.36-6.43-14.36-14.36v-14.14Z" style="stroke-width:0px;"/><path d="m150.86,424.57h15.74c8.82,0,15.98-7.15,15.98-15.98v-63.19c0-8.82-7.15-15.98-15.98-15.98h-63.19c-8.82,0-15.98,7.15-15.98,15.98v63.19c0,8.82,7.15,15.98,15.98,15.98h47.45Z" style="stroke-width:0px;"/><path d="m92.26,476.73h128.11c7.93,0,14.36-6.43,14.36-14.36v-170.74c0-7.93-6.43-14.36-14.36-14.36H49.65c-7.94,0-14.38,6.44-14.38,14.38v170.72c0,7.93,6.43,14.36,14.36,14.36h42.63Zm-28.49-56.99v-99.62c0-7.93,6.43-14.36,14.36-14.36h113.76c7.93,0,14.36,6.43,14.36,14.36v113.76c0,7.93-6.43,14.36-14.36,14.36h-113.76c-7.93,0-14.36-6.43-14.36-14.36v-14.14Z" style="stroke-width:0px;"/><path d="m392.86,424.57h15.74c8.82,0,15.98-7.15,15.98-15.98v-63.19c0-8.82-7.15-15.98-15.98-15.98h-63.19c-8.82,0-15.98,7.15-15.98,15.98v63.19c0,8.82,7.15,15.98,15.98,15.98h47.45Z" style="stroke-width:0px;"/><path d="m334.26,476.73h128.11c7.93,0,14.36-6.43,14.36-14.36v-170.74c0-7.93-6.43-14.36-14.36-14.36h-170.72c-7.94,0-14.38,6.44-14.38,14.38v170.72c0,7.93,6.43,14.36,14.36,14.36h42.63Zm-28.49-56.99v-99.62c0-7.93,6.43-14.36,14.36-14.36h113.76c7.93,0,14.36,6.43,14.36,14.36v113.76c0,7.93-6.43,14.36-14.36,14.36h-113.76c-7.93,0-14.36-6.43-14.36-14.36v-14.14Z" style="stroke-width:0px;"/></svg>