<?xml version="1.0" encoding="UTF-8"?><svg id="Layer_1" xmlns="http://www.w3.org/2000/svg" viewBox="0 0 512 512"><rect x="26" y="26" width="460" height="460" style="fill:#fff; stroke-width:0px;"/><path d="m292.57,365.71h36.29c20.35,0,36.85-16.5,36.85-36.85v-145.73c0-20.35-16.5-36.85-36.85-36.85h-145.73c-20.35,0-36.85,16.5-36.85,36.85v145.73c0,20.35,16.5,36.85,36.85,36.85h109.44Z" style="stroke-width:0px;"/><path d="m146.29,512h328.86c20.35,0,36.85-16.5,36.85-36.85V36.85c0-20.35-16.5-36.85-36.85-36.85H36.9C16.52,0,0,16.52,0,36.9v438.25c0,20.35,16.5,36.85,36.85,36.85h109.44Zm-73.14-146.29V109.99c0-20.35,16.5-36.85,36.85-36.85h292.01c20.35,0,36.85,16.5,36.85,36.85v292.01c0,20.35-16.5,36.85-36.85,36.85H109.99c-20.35,0-36.85-16.5-36.85-36.85v-36.29Z" style="stroke-width:0px;"/></svg>